<?xml version="1.0" encoding="utf-8"?>
<!-- Generator: Adobe Illustrator 16.0.0, SVG Export Plug-In . SVG Version: 6.00 Build 0)  -->
<svg version="1.2" baseProfile="tiny" id="Layer_1" xmlns="http://www.w3.org/2000/svg" xmlns:xlink="http://www.w3.org/1999/xlink"
	 x="0px" y="0px" width="177.2px" height="40.5px" viewBox="0 0 177.2 40.5" xml:space="preserve">
<g>
	<g>
		<path fill="#F2F2F2" d="M23.985,22.057c-0.449,1.473-1.249,3.844-1.826,4.9c-0.897,0.225-3.587,0.865-5.893,0.865
			C8.291,27.822,4.8,22.312,4.8,17.22c0-6.726,5.188-11.178,12.331-11.178c2.594,0,4.772,0.705,5.669,0.865
			c0.256,1.826,0.448,3.107,0.641,4.836l-0.961,0.224c-0.833-3.395-2.754-4.772-6.213-4.772c-5.349,0-8.199,4.516-8.199,9.384
			c0,5.989,3.523,10.089,8.391,10.089c3.267,0,4.997-1.762,6.598-4.965L23.985,22.057z"/>
		<path fill="#F2F2F2" d="M44.767,27.598c-0.384,0-0.736,0-1.121-0.032c-2.402-0.128-3.748-0.833-5.189-2.915
			c-1.121-1.568-2.274-3.555-3.235-5.124c-0.544-0.896-1.089-1.281-2.754-1.281h-1.025v5.093c0,2.723,0.289,2.914,2.851,3.106v0.897
			h-8.423v-0.897c2.626-0.192,2.915-0.384,2.915-3.106V10.462c0-2.722-0.256-2.818-2.754-3.042V6.523h7.943
			c2.338,0,3.908,0.288,5.125,1.089c1.281,0.833,2.114,2.274,2.114,4.196c0,2.754-1.697,4.452-4.067,5.477
			c0.544,1.057,1.89,3.203,2.851,4.644c1.153,1.665,1.826,2.498,2.594,3.331c0.865,0.961,1.602,1.312,2.306,1.505L44.767,27.598z
			 M32.981,17.188c1.633,0,2.69-0.256,3.491-0.897c1.25-0.961,1.762-2.242,1.762-3.971c0-3.459-2.274-4.74-4.708-4.74
			c-0.929,0-1.473,0.128-1.729,0.32c-0.224,0.16-0.353,0.544-0.353,1.409v7.879H32.981z"/>
		<path fill="#F2F2F2" d="M45.789,27.342v-0.897c2.626-0.192,2.882-0.384,2.882-3.106V10.526c0-2.722-0.256-2.915-2.882-3.106V6.523
			h8.487V7.42c-2.626,0.192-2.883,0.384-2.883,3.106v12.812c0,2.754,0.256,2.914,2.883,3.106v0.897H45.789z M54.5,3.384l-5.925,2.05
			L48.19,4.633c1.698-1.089,3.523-2.306,5.028-3.267c0.353,0.064,1.249,1.313,1.345,1.762L54.5,3.384z"/>
		<path fill="#F2F2F2" d="M73.522,11.487c-0.352-1.537-0.641-2.338-1.025-2.851c-0.512-0.769-1.057-0.993-3.459-0.993h-2.274v15.758
			c0,2.529,0.256,2.85,3.299,3.042v0.897h-9.192v-0.897c2.915-0.192,3.171-0.513,3.171-3.042V7.644h-1.986
			c-2.659,0-3.299,0.256-3.715,0.993c-0.384,0.544-0.641,1.441-1.025,2.851h-0.929c0.16-1.922,0.32-4.003,0.384-5.765h0.641
			c0.448,0.737,0.865,0.801,1.761,0.801h12.651c0.865,0,1.121-0.192,1.633-0.801h0.673c0,1.474,0.161,3.812,0.32,5.669
			L73.522,11.487z"/>
		<path fill="#F2F2F2" d="M76.466,27.342v-0.897c2.626-0.192,2.883-0.384,2.883-3.106V10.526c0-2.722-0.257-2.915-2.883-3.106V6.523
			h8.487V7.42c-2.626,0.192-2.883,0.384-2.883,3.106v12.812c0,2.754,0.257,2.914,2.883,3.106v0.897H76.466z"/>
		<path fill="#F2F2F2" d="M106.762,22.057c-0.448,1.473-1.249,3.844-1.825,4.9c-0.897,0.225-3.588,0.865-5.894,0.865
			c-7.976,0-11.466-5.51-11.466-10.602c0-6.726,5.188-11.178,12.33-11.178c2.595,0,4.772,0.705,5.67,0.865
			c0.256,1.826,0.447,3.107,0.641,4.836l-0.961,0.224c-0.834-3.395-2.755-4.772-6.214-4.772c-5.349,0-8.199,4.516-8.199,9.384
			c0,5.989,3.522,10.089,8.392,10.089c3.267,0,4.996-1.762,6.598-4.965L106.762,22.057z"/>
	</g>
	<g>
		<path fill="#F2F2F2" d="M126.063,24.395c-1.73,2.146-3.876,3.331-4.677,3.331c-0.608,0-1.024-0.48-0.576-2.818l0.641-3.043h-0.064
			c-1.249,1.762-2.755,3.3-4.132,4.42c-1.057,0.864-2.113,1.441-2.979,1.441c-0.832,0-1.857-1.057-1.857-3.619
			c0-3.235,1.506-6.726,3.844-8.68c1.602-1.345,3.939-2.466,5.957-2.466c0.672,0,1.312,0.096,1.986,0.225
			c0.447,0.096,0.864,0.192,1.217,0.192l0.096,0.128c-0.513,1.986-1.473,6.342-2.21,10.409c-0.224,1.121-0.128,1.377,0.063,1.377
			c0.257,0,1.378-0.736,2.307-1.665L126.063,24.395z M121.899,19.398c0.352-1.281,0.832-3.587,1.057-4.612
			c-0.448-0.224-1.312-0.448-2.146-0.448s-1.729,0.256-2.274,0.672c-2.178,1.602-3.459,5.381-3.459,8.552
			c0,1.441,0.416,2.113,0.865,2.113C117.191,25.676,120.811,21.608,121.899,19.398z"/>
		<path fill="#F2F2F2" d="M127.918,16.1c1.634-1.826,3.619-3.139,4.483-3.139c0.801,0,0.834,1.474,0.354,3.715l-0.32,1.602h0.096
			c1.633-3.139,3.523-5.317,4.805-5.317c0.544,0,1.088,0.353,1.377,0.801c0.224,0.417,0.224,0.929-0.032,1.377
			c-0.225,0.384-0.545,0.705-0.833,0.929c-0.288,0.192-0.545,0.192-0.705,0.032c-0.352-0.385-0.736-0.545-1.088-0.545
			c-0.385,0-0.897,0.32-1.634,1.345c-0.704,1.025-1.698,2.53-2.274,3.972c-0.512,2.146-0.896,4.164-1.281,6.277
			c-0.704,0.097-1.568,0.32-2.273,0.577l-0.256-0.257c0.832-3.426,1.729-7.366,2.338-10.793c0.191-1.057,0.191-1.377-0.064-1.377
			c-0.288,0-1.312,0.641-2.273,1.537L127.918,16.1z"/>
		<path fill="#F2F2F2" d="M150.624,35.092l-7.398,0.385l0.16-0.833l0.512-0.096c1.506-0.32,1.858-0.577,2.274-2.562l2.05-9.896
			h-0.064c-0.992,1.28-2.658,2.882-4.1,4.035c-1.185,0.929-2.401,1.602-3.362,1.602c-1.089,0-2.018-1.474-2.018-3.587
			c0-3.427,1.569-6.63,3.715-8.552c1.538-1.345,3.651-2.21,4.868-2.434c0.449-0.128,1.09-0.192,1.666-0.192
			c0.672,0,1.985,0.225,2.786,0.48l0.513,0.128c-0.353,1.441-0.961,3.875-1.506,7.014l-2.082,11.209
			c-0.384,2.051-0.16,2.21,1.346,2.402l0.769,0.096L150.624,35.092z M144.892,15.075c-2.242,1.601-3.523,5.413-3.523,8.231
			c0,1.505,0.416,2.274,0.961,2.274c1.537,0,4.676-3.268,6.117-5.509c0.288-1.089,0.801-3.395,1.121-5.221
			c-0.545-0.288-1.346-0.48-2.307-0.48C146.429,14.37,145.532,14.626,144.892,15.075z"/>
	</g>
	<g>
		<path fill="#FFFFFF" d="M165.765,21c-0.6,0.09-0.64,0.14-0.64,0.729v0.85c0,0.35,0.011,0.67,0.07,0.939
			c-0.62,0.15-1.439,0.37-2.239,0.37c-2.198,0-3.668-1.369-3.668-3.348c0-2.319,1.859-3.448,3.818-3.448c0.83,0,1.6,0.22,1.919,0.29
			c0.03,0.35,0.079,0.899,0.159,1.559L164.905,19c-0.24-1.219-1-1.549-1.949-1.549c-1.529,0-2.648,1.12-2.648,2.968
			c0,1.44,0.85,3.119,2.779,3.119c0.34,0,0.648-0.07,0.869-0.181c0.199-0.109,0.32-0.229,0.32-0.648v-0.85
			c0-0.72-0.07-0.78-1.051-0.86v-0.27h2.539V21z"/>
		<path fill="#FFFFFF" d="M171.626,18.791c-0.11-0.48-0.2-0.729-0.32-0.89c-0.16-0.24-0.33-0.31-1.08-0.31h-0.709v4.917
			c0,0.79,0.08,0.891,1.029,0.95v0.28h-2.868v-0.28c0.909-0.06,0.989-0.16,0.989-0.95v-4.917h-0.619c-0.83,0-1.029,0.08-1.16,0.31
			c-0.119,0.17-0.199,0.45-0.319,0.89h-0.29c0.05-0.6,0.1-1.25,0.12-1.799h0.2c0.14,0.229,0.27,0.25,0.549,0.25h3.948
			c0.271,0,0.35-0.06,0.51-0.25h0.21c0,0.459,0.05,1.189,0.1,1.769L171.626,18.791z"/>
	</g>
</g>
</svg>
